<svg width="57" height="13" viewBox="0 0 57 13" fill="none" xmlns="http://www.w3.org/2000/svg">
<path d="M4.912 12.176C7.184 12.176 8.992 10.992 8.992 8.752C8.992 6.336 6.944 5.84 5.2 5.408C3.872 5.088 2.72 4.816 2.72 3.776C2.72 2.864 3.632 2.352 4.752 2.352C5.92 2.352 6.848 2.96 6.848 4.08H8.672C8.672 1.968 7.232 0.639999 4.8 0.639999C2.416 0.639999 0.88 1.84 0.88 3.856C0.88 6.16 2.848 6.64 4.56 7.056C5.904 7.376 7.104 7.648 7.104 8.768C7.104 9.792 6.096 10.432 4.896 10.432C3.584 10.432 2.56 9.728 2.56 8.48H0.688C0.688 10.768 2.4 12.176 4.912 12.176ZM19.1751 7.712C19.1751 5.2 17.4151 3.152 14.7591 3.152C12.2311 3.152 10.3271 5.104 10.3271 7.68C10.3271 10.272 12.2311 12.224 14.7591 12.224C16.6951 12.224 18.2791 11.104 18.9671 9.28H17.0951C16.6311 10.08 15.7991 10.56 14.7591 10.56C13.3511 10.56 12.3431 9.696 12.1191 8.288H19.1271C19.1591 8.096 19.1751 7.904 19.1751 7.712ZM14.7591 4.768C16.0871 4.768 17.0631 5.536 17.3831 6.848H12.1671C12.4551 5.568 13.4311 4.768 14.7591 4.768ZM28.2929 3.36L28.0849 4.448C27.3009 3.632 26.1969 3.152 24.9169 3.152C22.3409 3.152 20.4209 5.088 20.4209 7.68C20.4209 10.272 22.3409 12.224 24.9169 12.224C26.1809 12.224 27.2689 11.744 28.0529 10.96L28.2289 12H29.6529V3.36H28.2929ZM25.0609 10.512C23.4289 10.512 22.2289 9.296 22.2289 7.68C22.2289 6.064 23.4289 4.848 25.0609 4.848C26.6929 4.848 27.8769 6.048 27.8769 7.68C27.8769 9.312 26.6929 10.512 25.0609 10.512ZM36.3455 3.312C35.1615 3.312 34.3135 3.728 33.6895 4.544L33.4015 3.36H32.2015V12H33.9775V7.408C33.9775 5.84 34.6975 4.992 36.1695 4.992H37.1135V3.312H36.3455ZM42.152 12.224C44.28 12.224 45.992 10.88 46.456 8.864H44.664C44.2 9.92 43.288 10.528 42.152 10.528C40.616 10.528 39.432 9.28 39.432 7.68C39.432 6.08 40.6 4.848 42.152 4.848C43.272 4.848 44.232 5.456 44.68 6.448H46.44C45.96 4.464 44.296 3.152 42.152 3.152C39.576 3.152 37.624 5.104 37.624 7.68C37.624 10.256 39.576 12.224 42.152 12.224ZM52.7931 3.168C51.6411 3.168 50.6491 3.616 49.9931 4.352V0.271999H48.2171V12H49.9931V7.376C49.9931 5.856 50.9691 4.768 52.3131 4.768C53.6251 4.768 54.2971 5.6 54.2971 7.168V12H56.0731V6.8C56.0731 4.576 54.8091 3.168 52.7931 3.168Z" fill="#0B0614" fill-opacity="0.3"/>
</svg>
