<svg width="184" height="40" viewBox="0 0 184 40" fill="none" xmlns="http://www.w3.org/2000/svg">
<circle cx="20" cy="20" r="19.5" stroke="#FF5029"/>
<path d="M21.1643 27.4976V20.6676H23.4684L23.8109 17.9935H21.1643V16.2901C21.1643 15.5185 21.3793 14.9901 22.4868 14.9901H23.8901V12.606C23.2076 12.5326 22.5209 12.4976 21.8343 12.5001C19.7976 12.5001 18.3993 13.7435 18.3993 16.026V17.9885H16.1101V20.6626H18.4043V27.4976H21.1643Z" fill="#FF5029"/>
<path d="M74.3609 16.6641C74.3717 16.81 74.3717 16.955 74.3717 17.1C74.3717 21.5375 70.9942 26.6508 64.8217 26.6508C62.9201 26.6508 61.1534 26.1 59.6667 25.1433C59.9367 25.1741 60.1967 25.185 60.4776 25.185C62.0467 25.185 63.4909 24.655 64.6451 23.7508C63.1692 23.72 61.9326 22.7533 61.5059 21.4233C61.7134 21.4541 61.9217 21.475 62.1401 21.475C62.4409 21.475 62.7434 21.4333 63.0242 21.3608C61.4851 21.0491 60.3326 19.6983 60.3326 18.0666V18.025C60.7801 18.2741 61.2992 18.43 61.8492 18.4508C60.9451 17.8491 60.3526 16.82 60.3526 15.6558C60.3526 15.0325 60.5184 14.4608 60.8092 13.9625C62.4617 15.9983 64.9459 17.3291 67.7309 17.475C67.6792 17.225 67.6476 16.9658 67.6476 16.7058C67.6476 14.8558 69.1442 13.3491 71.0042 13.3491C71.9709 13.3491 72.8434 13.7541 73.4567 14.4091C74.2151 14.2633 74.9417 13.9825 75.5867 13.5983C75.3376 14.3775 74.8067 15.0325 74.1109 15.4483C74.7867 15.375 75.4417 15.1883 76.0434 14.9283C75.5867 15.5933 75.0159 16.1858 74.3609 16.6641Z" fill="#FF5029"/>
<circle cx="68" cy="20" r="19.5" stroke="#FF5029"/>
<path d="M115.999 16.1475C113.871 16.1475 112.146 17.8725 112.146 20C112.146 22.1283 113.871 23.8533 115.999 23.8533C118.126 23.8533 119.851 22.1283 119.851 20C119.851 17.8725 118.126 16.1475 115.999 16.1475ZM115.999 22.5033C114.616 22.5033 113.496 21.3825 113.496 20.0008C113.496 18.6183 114.616 17.4983 115.999 17.4983C117.381 17.4983 118.501 18.6183 118.501 20.0008C118.501 21.3825 117.381 22.5033 115.999 22.5033Z" fill="#FF5029"/>
<path d="M120.005 16.9041C120.501 16.9041 120.903 16.5019 120.903 16.0058C120.903 15.5096 120.501 15.1074 120.005 15.1074C119.509 15.1074 119.106 15.5096 119.106 16.0058C119.106 16.5019 119.509 16.9041 120.005 16.9041Z" fill="#FF5029"/>
<path d="M123.111 15.0927C122.72 14.0852 121.924 13.2886 120.916 12.8994C120.334 12.6802 119.718 12.5627 119.095 12.5494C118.292 12.5144 118.038 12.5044 116.003 12.5044C113.968 12.5044 113.707 12.5044 112.911 12.5494C112.29 12.5619 111.674 12.6794 111.091 12.8994C110.083 13.2886 109.287 14.0852 108.897 15.0927C108.678 15.6761 108.561 16.2911 108.548 16.9144C108.512 17.7161 108.501 17.9702 108.501 20.0061C108.501 22.0411 108.501 22.3002 108.548 23.0977C108.561 23.7211 108.678 24.3361 108.897 24.9202C109.288 25.9269 110.084 26.7236 111.092 27.1136C111.672 27.3402 112.288 27.4686 112.913 27.4886C113.716 27.5236 113.97 27.5344 116.005 27.5344C118.04 27.5344 118.301 27.5344 119.096 27.4886C119.719 27.4761 120.335 27.3577 120.918 27.1394C121.926 26.7486 122.721 25.9527 123.112 24.9452C123.331 24.3619 123.449 23.7469 123.461 23.1236C123.497 22.3219 123.508 22.0677 123.508 20.0319C123.508 17.9961 123.508 17.7377 123.461 16.9402C123.451 16.3086 123.334 15.6827 123.111 15.0927ZM122.096 23.0361C122.09 23.5161 122.003 23.9919 121.836 24.4427C121.582 25.0986 121.065 25.6169 120.41 25.8686C119.964 26.0344 119.494 26.1211 119.018 26.1277C118.226 26.1644 118.003 26.1736 115.973 26.1736C113.941 26.1736 113.734 26.1736 112.927 26.1277C112.453 26.1219 111.981 26.0344 111.536 25.8686C110.879 25.6177 110.358 25.0994 110.104 24.4427C109.941 23.9977 109.852 23.5269 109.845 23.0519C109.809 22.2602 109.801 22.0369 109.801 20.0069C109.801 17.9761 109.801 17.7686 109.845 16.9611C109.851 16.4811 109.937 16.0061 110.104 15.5552C110.358 14.8977 110.879 14.3802 111.536 14.1286C111.981 13.9636 112.453 13.8761 112.927 13.8694C113.72 13.8336 113.942 13.8236 115.973 13.8236C118.004 13.8236 118.212 13.8236 119.018 13.8694C119.494 13.8752 119.964 13.9627 120.41 14.1286C121.065 14.3811 121.582 14.8994 121.836 15.5552C122 16.0002 122.088 16.4711 122.096 16.9461C122.131 17.7386 122.141 17.9611 122.141 19.9919C122.141 22.0219 122.141 22.2402 122.105 23.0369H122.096V23.0361Z" fill="#FF5029"/>
<circle cx="116" cy="20" r="19.5" stroke="#FF5029"/>
<path d="M158.152 15.9977C159.159 15.9977 159.976 15.1814 159.976 14.1744C159.976 13.1674 159.159 12.3511 158.152 12.3511C157.145 12.3511 156.329 13.1674 156.329 14.1744C156.329 15.1814 157.145 15.9977 158.152 15.9977Z" fill="#FF5029"/>
<path d="M161.697 17.3794V27.4952H164.838V22.4927C164.838 21.1727 165.087 19.8944 166.723 19.8944C168.337 19.8944 168.357 21.4036 168.357 22.5761V27.4961H171.5V21.9486C171.5 19.2236 170.913 17.1294 167.728 17.1294C166.199 17.1294 165.174 17.9686 164.755 18.7627H164.712V17.3794H161.697ZM156.579 17.3794H159.725V27.4952H156.579V17.3794Z" fill="#FF5029"/>
<circle cx="164" cy="20" r="19.5" stroke="#FF5029"/>
</svg>
